<svg
   viewBox="-5.0 -10.0 110.0 135.0"
   xmlns="http://www.w3.org/2000/svg"
   xmlns:svg="http://www.w3.org/2000/svg">
  <path
     d="m39.344 23.723c1.3945 1.5078 2.0703 3.4258 2.0391 5.332 0.019532 0 0.039063 0.003906 0.0625 0.007812l5.207 0.75781c0.050781 0.007813 0.097656 0.019532 0.14453 0.03125 0.55859-1.2578 1.8164-2.1367 3.2852-2.1367 1.9805 0 3.5898 1.6055 3.5898 3.5898 0 1.9805-1.6055 3.5898-3.5898 3.5898-1.8125 0-3.3125-1.3477-3.5547-3.0938-0.050782 0-0.10156-0.003906-0.15234-0.011719l-5.207-0.75781c-0.023438-0.003906-0.042969-0.007812-0.066407-0.011719-0.37109 1.3203-1.0977 2.5586-2.1797 3.5586-1.1562 1.0703-2.5547 1.7148-4 1.9453 0.003906 0.023437 0.003906 0.042968 0.003906 0.066406l0.34766 11.867c0 0.039063 0 0.074219-0.003907 0.11328 1.2305 0.21094 2.4062 0.81641 3.3203 1.8047 2.2031 2.3828 2.0586 6.1016-0.32422 8.3086-2.3828 2.2031-6.1016 2.0586-8.3086-0.32422-2.2031-2.3828-2.0586-6.1016 0.32422-8.3086 0.87109-0.80469 1.918-1.2969 3.0078-1.4805 0-0.019531-0.003906-0.035156-0.003906-0.054687l-0.34766-11.867v-0.0625c-1.8008-0.17969-3.5469-0.99219-4.875-2.4297-0.67969-0.73438-1.1875-1.5664-1.5273-2.4492-0.019531 0.007813-0.042968 0.011719-0.0625 0.019531l-8.4805 2.0664c-0.042969 0.011719-0.085938 0.019531-0.12891 0.023437v0.10938c0 2.2578-1.832 4.0898-4.0898 4.0898-2.2578 0-4.0898-1.832-4.0898-4.0898 0-2.2578 1.832-4.0859 4.0898-4.0859 1.5312 0 2.8672 0.84375 3.5664 2.0898 0.058594-0.027344 0.11719-0.050782 0.18359-0.066407l8.4766-2.0664c0.019531-0.003906 0.042969-0.007813 0.0625-0.011719-0.24609-2.2578 0.50781-4.6016 2.2383-6.3086-0.015625-0.019531-0.03125-0.035156-0.042969-0.054687l-4.4453-5.9297c-1.332 0.50781-2.8984 0.19141-3.9258-0.92188-1.3516-1.4609-1.2617-3.7383 0.19922-5.0898 1.4609-1.3516 3.7383-1.2617 5.0898 0.19922 1.2031 1.3008 1.2617 3.2539 0.22656 4.6211l4.4453 5.9297c0.011719 0.015625 0.023438 0.03125 0.03125 0.046875 1.6914-0.97266 3.6602-1.2422 5.5039-0.82812 0.007813-0.019531 0.011719-0.039063 0.019532-0.058594l2.1992-6.0195c0.007813-0.027344 0.019532-0.050782 0.03125-0.074219-1.7695-1.0156-2.9609-2.9219-2.9609-5.1055 0-3.25 2.6328-5.8828 5.8828-5.8828s5.8828 2.6328 5.8828 5.8828-2.6328 5.8828-5.8828 5.8828c-0.36328 0-0.71484-0.035157-1.0586-0.097657-0.007813 0.023438-0.015625 0.050782-0.023438 0.074219l-2.1992 6.0195c-0.007813 0.023438-0.015626 0.042969-0.023438 0.0625 0.76172 0.38672 1.4727 0.92188 2.0938 1.5898zm3.3516 25.344c0.27734 0.71484 0.60156 1.4219 0.97266 2.1133 0.35938 0.67969 0.76562 1.3477 1.2148 2.0039 2.5781 3.7422 6.1953 6.3477 10.199 7.6836 3.2734 1.0938 6.8047 1.3438 10.238 0.67969l-0.78125 1.1875c-0.30078 0.46094-0.17187 1.0781 0.28906 1.3789s1.0781 0.17188 1.3789-0.28906l2.1992-3.3516c0.30078-0.46094 0.17188-1.0781-0.28906-1.3789-0.054688-0.035156-0.10938-0.066406-0.16797-0.085938l-3.5781-1.6875c-0.49609-0.23437-1.0898-0.023437-1.3242 0.47656-0.23438 0.49609-0.023437 1.0898 0.47656 1.3242l1.125 0.53125c-3 0.52734-6.0781 0.28906-8.9336-0.66797-3.6055-1.207-6.8672-3.5508-9.1953-6.9297-0.40234-0.58203-0.76562-1.1836-1.0898-1.8008-0.33203-0.625-0.625-1.2617-0.87891-1.9141-0.19922-0.51172-0.77734-0.76562-1.2891-0.56641-0.51172 0.20312-0.76562 0.78125-0.56641 1.293zm19.793 39.848-0.36719-3.8516h-24.242l-0.36719 3.8516zm30.355-63.477h-50.117c0.23438 0.60156 0.40625 1.2266 0.51563 1.8672l2.582 0.375c1.043-1.2266 2.5859-1.9648 4.2539-1.9648 3.082 0 5.582 2.5 5.582 5.582s-2.5 5.582-5.582 5.582c-2.2383 0-4.207-1.3281-5.0898-3.2852l-2.6094-0.37891c-0.51953 1.0547-1.2344 2.0117-2.1094 2.8203-0.96484 0.89062-2.0898 1.5703-3.3125 2.0078l0.26172 9.0078c1.0703 0.42969 2.0352 1.0977 2.8281 1.957 2.9453 3.1875 2.75 8.1797-0.4375 11.125-3.1875 2.9453-8.1797 2.75-11.125-0.4375s-2.75-8.1797 0.4375-11.125c0.68359-0.63281 1.4688-1.1367 2.3203-1.4883l-0.26172-8.8633c-1.6719-0.48828-3.1875-1.4219-4.3867-2.7188-0.42578-0.46094-0.80469-0.95703-1.1289-1.4844l-5.8008 1.4141c-0.67187 2.625-3.0547 4.5703-5.8945 4.5703-3.3594 0-6.082-2.7227-6.082-6.082s2.7227-6.082 6.082-6.082c1.6602 0 3.2148 0.67187 4.3398 1.8242l5.9375-1.4453c0.070313-0.95312 0.28516-1.8906 0.62891-2.7734l-17.52-0.003906c-1.1055 0-2.1094 0.45312-2.8398 1.1836-0.73047 0.73047-1.1836 1.7344-1.1836 2.8398v44.387h93.73v-44.387c0-1.1055-0.45312-2.1094-1.1836-2.8398-0.72656-0.73047-1.7305-1.1836-2.8359-1.1836zm-89.707 50.406v3.2031c0 1.1055 0.45312 2.1094 1.1836 2.8398 0.73047 0.73047 1.7344 1.1836 2.8398 1.1836h85.688c1.1055 0 2.1094-0.45312 2.8398-1.1836s1.1836-1.7344 1.1836-2.8398v-3.2031zm68.195 15.062h-42.66c-0.14453 0-0.27734 0.058594-0.375 0.15625v-0.003906c-0.09375 0.097656-0.15234 0.23047-0.15234 0.375v4.2656h43.719l-0.003906-4.2617c0-0.13281-0.046875-0.25391-0.12891-0.34766-0.011719-0.007813-0.019531-0.019532-0.03125-0.027344-0.09375-0.097656-0.22656-0.15625-0.36719-0.15625zm-25.93-10.52c-0.55078 0-0.99609-0.44531-0.99609-0.99609s0.44531-0.99609 0.99609-0.99609h9.1992c0.55078 0 0.99609 0.44531 0.99609 0.99609s-0.44531 0.99609-0.99609 0.99609zm36.27-19.18c-0.53906 0.71875-0.90625 1.5781-1.0312 2.5117l-2.6367 2.5664-0.007812 0.007813-0.003906-0.003907-0.035157 0.035157c-0.68359 0.64453-1.5703 0.95703-2.4492 0.94531-0.89844-0.011719-1.7891-0.36719-2.4609-1.0586l-0.007813-0.007813v-0.003906c-0.011718-0.011719-0.023437-0.023438-0.035156-0.035157-0.64453-0.68359-0.95703-1.5703-0.94531-2.4492 0.011718-0.89844 0.36719-1.7891 1.0586-2.4609l4.4219-4.3008zm-0.76953 5.0312-1.5039 1.4609c-0.023438 0.023437-0.046876 0.042969-0.070313 0.066406-1.0742 1.0156-2.4648 1.5117-3.8438 1.4922-1.4062-0.019531-2.8008-0.57031-3.8555-1.6484h-0.003906c-0.023438-0.023437-0.042969-0.046875-0.066406-0.070313-1.0156-1.0742-1.5117-2.4648-1.4922-3.8438 0.019532-1.4102 0.57422-2.8125 1.6562-3.8633l5.1367-4.9922 0.03125-0.027344 5.1055-4.9648c1.0859-1.0547 2.5-1.5664 3.9062-1.5469s2.8008 0.57031 3.8555 1.6484l0.003907-0.003907c0.023437 0.023438 0.042969 0.046876 0.066406 0.070313 1.0156 1.0742 1.5117 2.4648 1.4922 3.8438-0.019531 1.4062-0.57031 2.8008-1.6484 3.8555l0.003906 0.003906c-0.019531 0.019531-0.042969 0.039062-0.066406 0.058594l-1.6914 1.6445c0.70312 0.27344 1.3359 0.69141 1.8633 1.2148 0.87109 0.87109 1.4453 2.043 1.5547 3.3438 0.011718 0.0625 0.019531 0.12891 0.019531 0.19531 0 0.027344 0 0.054688-0.003907 0.082031 0.003907 0.058594 0.003907 0.12109 0.003907 0.18359 0 1.4883-0.60156 2.832-1.5742 3.8047s-2.3203 1.5742-3.8047 1.5742c-1.4844 0-2.832-0.60156-3.8047-1.5742-0.5625-0.5625-1-1.2461-1.2695-2.0078zm4.5039-7.1523c-0.82422 0.085937-1.5977 0.35937-2.2656 0.77734l-4.1758-4.293 4.4219-4.3008c0.69141-0.67188 1.5977-1 2.4961-0.98828 0.89844 0.011719 1.7891 0.36719 2.4609 1.0586l0.007812 0.011718 0.035157 0.035157c0.64453 0.68359 0.95703 1.5703 0.94531 2.4492-0.011719 0.89844-0.36719 1.7891-1.0586 2.4609l-0.011719 0.007813-0.003907-0.003907c-0.011718 0.011719-0.027343 0.027344-0.039062 0.042969zm2.9648 2.957c0.32031 0.32031 0.57812 0.70703 0.75 1.1328h-6.2891c0.17188-0.42969 0.42969-0.8125 0.75-1.1328 0.61328-0.61328 1.4609-0.99219 2.3945-0.99219 0.93359 0 1.7812 0.37891 2.3945 0.99219zm-5.7031 3.1289h6.6172c-0.14062 0.64062-0.46484 1.2148-0.91406 1.6602-0.61328 0.61328-1.4609 0.99219-2.3945 0.99219-0.93359 0-1.7812-0.37891-2.3945-0.99219-0.44922-0.44922-0.77344-1.0195-0.91406-1.6602zm-2.3047-20.891 0.60547-1.2852c0.23438-0.49609 0.82812-0.71094 1.3242-0.47656 0.49609 0.23438 0.71094 0.82812 0.47656 1.3242l-1.6836 3.5781c-0.023438 0.058594-0.054688 0.11328-0.089844 0.16797-0.30078 0.46094-0.91797 0.58984-1.3789 0.28906l-3.3516-2.1953c-0.46094-0.30078-0.58984-0.91797-0.28906-1.3789 0.30078-0.46094 0.91797-0.58984 1.3789-0.28906l1.0391 0.67969c-1.1172-2.832-2.9297-5.3281-5.2383-7.2656-2.9141-2.4453-6.6172-4.0039-10.707-4.2188-0.71094-0.039063-1.418-0.035157-2.1172 0.007812-0.71484 0.042969-1.4102 0.12891-2.082 0.25-0.53906 0.097656-1.0547-0.26172-1.1523-0.80078-0.097656-0.53906 0.26172-1.0547 0.80078-1.1523 0.76953-0.13672 1.5391-0.23047 2.3164-0.28125 0.76562-0.046875 1.543-0.050781 2.3359-0.007813 4.543 0.24219 8.6523 1.9648 11.883 4.6797 2.6445 2.2188 4.7031 5.1016 5.9297 8.375z"
     fill-rule="evenodd"
     id="path327" />
</svg>
