<?xml version="1.0" encoding="UTF-8" standalone="no"?>
<svg
   version="1.1"
   viewBox="-5.0 -10.0 110.0 135.0"
   id="svg411"
   sodipodi:docname="investing.svg"
   inkscape:version="1.2.2 (b0a84865, 2022-12-01)"
   xmlns:inkscape="http://www.inkscape.org/namespaces/inkscape"
   xmlns:sodipodi="http://sodipodi.sourceforge.net/DTD/sodipodi-0.dtd"
   xmlns="http://www.w3.org/2000/svg"
   xmlns:svg="http://www.w3.org/2000/svg">
  <defs
     id="defs415" />
  <sodipodi:namedview
     id="namedview413"
     pagecolor="#ffffff"
     bordercolor="#000000"
     borderopacity="0.25"
     inkscape:showpageshadow="2"
     inkscape:pageopacity="0.0"
     inkscape:pagecheckerboard="0"
     inkscape:deskcolor="#d1d1d1"
     showgrid="false"
     inkscape:zoom="1.7481481"
     inkscape:cx="6.8644068"
     inkscape:cy="67.786017"
     inkscape:window-width="1512"
     inkscape:window-height="917"
     inkscape:window-x="0"
     inkscape:window-y="65"
     inkscape:window-maximized="0"
     inkscape:current-layer="svg411" />
  <path
     d="m81.703 78.664h-43.895c-0.98828 0-1.7109 0.9375-1.7109 1.957v1.957h47.316v-1.957c0-1.0156-0.72266-1.957-1.7109-1.957zm-16.262-2.0703v-5.25h-11.371v5.25zm-44.734-13.605v4.082c0 1.2109 0.99219 2.2031 2.2031 2.2031h73.59c1.2109 0 2.2031-0.99219 2.2031-2.2031v-4.082zm62.984-41.117c1.1797 0 2.1328 0.95703 2.1328 2.1328 0 1.7852-2.0625 2.7656-3.4453 1.6797l-9.0234 3.8359c-0.17578 1.668-2.1211 2.4805-3.4336 1.457l-9.0234 3.8359c-0.10938 1.0742-1.0195 1.9102-2.1211 1.9102-1.1797 0-2.1328-0.95312-2.1328-2.1328 0-1.7852 2.0586-2.7617 3.4453-1.6797l9.0195-3.832c0.17188-1.6719 2.125-2.4883 3.4375-1.4609l9.0195-3.832c0.11328-1.0742 1.0195-1.9141 2.125-1.9141zm-70.711 31.082c-1.3789-1.3789-3.6367-1.3789-5.0156 0l-6.582 6.582-0.003906-0.003906c-0.10938 0.11328-0.11328 0.30469 0.003906 0.41797l4.5977 4.5977c0.10938 0.10938 0.30078 0.11719 0.41797 0l6.582-6.582c1.375-1.3711 1.375-3.6328 0-5.0117zm7.7266 1.2812v6.6836h77.996v-41.293c0-1.2109-0.99219-2.2031-2.2031-2.2031h-73.59c-1.2109 0-2.2031 0.99219-2.2031 2.2031v3.8047c10.914-4.5273 23.066 3.4609 23.066 15.402h0.003906c0 11.926-12.152 19.934-23.07 15.402zm-0.55469-2.5547c-4.7773-2.5859-7.6562-7.5586-7.6562-12.848h0.003906c0-8.0664 6.5391-14.602 14.602-14.602 8.0664 0 14.605 6.543 14.605 14.602h-0.003906c0.003906 10.98-11.715 18.098-21.551 12.848zm-6.0312-2.6484c0.83984 1.0078 1.7656 1.9375 2.7734 2.7734l-1.3633 1.3711c-0.64844-1.1641-1.6172-2.1289-2.7773-2.7773zm11.945-18.656c0-1.3633 2.0742-1.3633 2.0742 0v1.5234c1.9141 0.39844 3.4688 1.9141 3.5156 3.9062 0.03125 1.3594-2.0312 1.4102-2.0664 0.046874-0.042969-1.8281-2.7852-2.6562-4.3047-1.3594-1.4414 1.2266-0.42578 3.293 1.8203 3.3047 4.207 0.019531 6.043 4.4805 3.1562 6.9414-0.58203 0.49609-1.3125 0.85547-2.125 1.0234v1.5234c0 1.3633-2.0742 1.3633-2.0742 0v-1.5234c-1.9141-0.39844-3.4688-1.918-3.5156-3.9062-0.03125-1.3594 2.0312-1.4102 2.0664-0.046875 0.042969 1.8281 2.7852 2.6562 4.3047 1.3594 1.4414-1.2266 0.42578-3.293-1.8203-3.3047-4.207-0.019531-6.043-4.4805-3.1562-6.9414 0.58203-0.49609 1.3125-0.85547 2.125-1.0234zm29.324 36.793c-1.3633 0-1.3633-2.0742 0-2.0742h8.6289c1.3633 0 1.3633 2.0742 0 2.0742zm-0.82422-10.703v-11.977h6.5117v11.977zm13.41 0v-18.195h6.5117v18.195zm13.414 0h6.5117v-24.41h-6.5117z"
     fill-rule="evenodd"
     id="path405" />
</svg>
