<?xml version="1.0" encoding="UTF-8" standalone="no"?>
<svg
   version="1.1"
   viewBox="-5.0 -10.0 110.0 135.0"
   id="svg8"
   sodipodi:docname="machine-learning.svg"
   inkscape:version="1.2.2 (b0a84865, 2022-12-01)"
   xmlns:inkscape="http://www.inkscape.org/namespaces/inkscape"
   xmlns:sodipodi="http://sodipodi.sourceforge.net/DTD/sodipodi-0.dtd"
   xmlns="http://www.w3.org/2000/svg"
   xmlns:svg="http://www.w3.org/2000/svg">
  <defs
     id="defs12" />
  <sodipodi:namedview
     id="namedview10"
     pagecolor="#ffffff"
     bordercolor="#000000"
     borderopacity="0.25"
     inkscape:showpageshadow="2"
     inkscape:pageopacity="0.0"
     inkscape:pagecheckerboard="0"
     inkscape:deskcolor="#d1d1d1"
     showgrid="false"
     inkscape:zoom="1.7481481"
     inkscape:cx="6.8644068"
     inkscape:cy="67.786017"
     inkscape:window-width="1512"
     inkscape:window-height="945"
     inkscape:window-x="0"
     inkscape:window-y="37"
     inkscape:window-maximized="0"
     inkscape:current-layer="svg8" />
  <path
     d="m57.062 85.168h-23.105c-0.78906 0-1.5156 0.32812-2.043 0.85156-0.52734 0.52734-0.85156 1.2422-0.85156 2.043v2.8828h28.875v-2.8828c0-0.78906-0.32812-1.5156-0.85156-2.043-0.52734-0.52734-1.2422-0.85156-2.043-0.85156zm-4.0938-7.1367h-14.914l-0.60156 4.8086h16.105l-0.60156-4.8086zm8.4844-33.516c0.34766-0.34766 0.55859-0.82031 0.55859-1.3594 0-0.53516-0.21094-1.0117-0.55859-1.3594s-0.82031-0.55859-1.3594-0.55859c-0.53516 0-1.0117 0.21094-1.3594 0.55859s-0.55859 0.82031-0.55859 1.3594c0 0.53516 0.21094 1.0117 0.55859 1.3594s0.82031 0.55859 1.3594 0.55859c0.53516 0 1.0117-0.21094 1.3594-0.55859zm-2.5898 16.125c0.30469-0.30469 0.50391-0.73828 0.50391-1.2109 0-0.47266-0.19141-0.89453-0.50391-1.2109-0.30469-0.30469-0.73828-0.50391-1.2109-0.50391s-0.90625 0.19141-1.2109 0.50391c-0.30469 0.30469-0.50391 0.73828-0.50391 1.2109 0 0.47266 0.19141 0.89453 0.50391 1.2109 0.30469 0.30469 0.73828 0.50391 1.2109 0.50391s0.89453-0.19141 1.2109-0.50391zm0-32.547c0.30469-0.30469 0.50391-0.73828 0.50391-1.2109 0-0.47266-0.19141-0.89453-0.50391-1.2109-0.31641-0.31641-0.73828-0.50391-1.2109-0.50391s-0.90625 0.19141-1.2109 0.50391c-0.30469 0.30469-0.50391 0.73828-0.50391 1.2109 0 0.47266 0.19141 0.90625 0.50391 1.2109 0.30469 0.30469 0.73828 0.50391 1.2109 0.50391s0.89453-0.19141 1.2109-0.50391zm-10.41 16.441 1.1484-0.17969v-2.3984l-1.1484-0.17969c-0.44141-0.074219-0.84375-0.25391-1.168-0.52734-0.32812-0.27344-0.57031-0.63281-0.71484-1.0625-0.074218-0.19922-0.13672-0.37891-0.19141-0.51562-0.050781-0.13672-0.13672-0.30469-0.22266-0.49609-0.19141-0.39844-0.27344-0.83203-0.23047-1.2539 0.03125-0.39844 0.16797-0.78906 0.41016-1.1367 0.019531-0.042968 0.050781-0.074218 0.074218-0.10547l0.65234-0.89453-1.6953-1.6953-0.9375 0.68359c-0.35938 0.26172-0.76953 0.42187-1.1992 0.45312-0.42969 0.042969-0.85156-0.042968-1.2539-0.23047-0.19141-0.09375-0.35937-0.16797-0.49609-0.22266-0.19922-0.085938-0.36719-0.14844-0.50391-0.19922-0.42187-0.13672-0.77734-0.39062-1.0625-0.71484-0.27344-0.32812-0.46484-0.72656-0.52734-1.168 0-0.03125 0-0.0625-0.011719-0.10547l-0.15625-1.043h-2.3984l-0.17969 1.1484c-0.074219 0.44141-0.25391 0.84375-0.52734 1.168-0.27344 0.32812-0.63281 0.57812-1.0508 0.72656-0.19141 0.0625-0.35938 0.125-0.50391 0.19141-0.15625 0.0625-0.32812 0.13672-0.49609 0.22266-0.39844 0.19141-0.83203 0.27344-1.2539 0.23047-0.42969-0.042969-0.84375-0.19141-1.1992-0.45312l-0.9375-0.68359-1.6953 1.6953 0.68359 0.9375c0.26172 0.35938 0.42188 0.76953 0.45312 1.1992 0.042969 0.42969-0.042969 0.85156-0.23047 1.2539-0.085937 0.17969-0.15625 0.34766-0.22266 0.49609-0.0625 0.15625-0.125 0.32812-0.19141 0.50391-0.14844 0.42187-0.39844 0.77734-0.72656 1.0625-0.32813 0.27344-0.72656 0.45312-1.168 0.52734l-1.1484 0.17969v2.3984l1.1484 0.17969c0.44141 0.074218 0.84375 0.25391 1.168 0.52734 0.32812 0.27344 0.57812 0.63281 0.72656 1.0508 0.074219 0.19922 0.13672 0.36719 0.19141 0.50391 0.0625 0.15625 0.13672 0.32812 0.22266 0.49609 0.19141 0.39844 0.27344 0.83203 0.23047 1.2539-0.042969 0.42969-0.19141 0.84375-0.45312 1.1992l-0.68359 0.9375 1.6953 1.6953 0.9375-0.68359c0.35938-0.26172 0.76953-0.42187 1.1992-0.45312 0.42969-0.042969 0.85156 0.042968 1.2539 0.23047 0.19141 0.09375 0.35938 0.16797 0.49609 0.22266 0.19922 0.085938 0.36719 0.14844 0.50391 0.19922 0.42188 0.14844 0.77734 0.39062 1.0508 0.71484 0.27344 0.32812 0.45312 0.72656 0.52734 1.168l0.17969 1.1484h2.3984l0.17969-1.1484c0.0625-0.44141 0.25391-0.84375 0.52734-1.168 0.27344-0.32812 0.63281-0.57812 1.0625-0.72656 0.03125 0 0.0625-0.019531 0.085938-0.03125 0.13672-0.050781 0.27344-0.10547 0.42188-0.16797 0.15625-0.0625 0.32812-0.13672 0.49609-0.23047 0.39844-0.19141 0.83203-0.27344 1.2539-0.23047 0.42969 0.042969 0.84375 0.19141 1.1992 0.45312l0.9375 0.68359 1.6953-1.6953-0.65234-0.88281s-0.0625-0.074219-0.085937-0.11719c-0.23047-0.34766-0.36719-0.72656-0.39844-1.125-0.042968-0.42969 0.042969-0.85156 0.23047-1.2539 0.09375-0.19141 0.16797-0.35938 0.22266-0.49609 0.0625-0.15625 0.125-0.32812 0.19141-0.50391 0.14844-0.42188 0.39844-0.77734 0.72656-1.0508s0.72656-0.45312 1.168-0.52734zm-6.9883 2.0938c-0.88281 0.88281-2.1172 1.4414-3.4727 1.4414-1.3594 0-2.5781-0.54687-3.4727-1.4414-0.88281-0.88281-1.4414-2.1172-1.4414-3.4727 0-1.3594 0.54688-2.5781 1.4414-3.4727 0.89453-0.89453 2.1172-1.4414 3.4727-1.4414 1.3594 0 2.5781 0.54687 3.4727 1.4414 0.88281 0.88281 1.4414 2.1172 1.4414 3.4727 0 1.3594-0.54688 2.5781-1.4414 3.4727zm3.7695-3.4727c0 2-0.80859 3.8086-2.1172 5.1172-1.3047 1.3047-3.1172 2.1172-5.1172 2.1172s-3.8086-0.80859-5.1172-2.1172c-1.3047-1.3047-2.1172-3.1172-2.1172-5.1172s0.80859-3.8086 2.1172-5.1172c1.3047-1.3047 3.1172-2.1172 5.1172-2.1172s3.8086 0.80859 5.1172 2.1172c1.3047 1.3047 2.1172 3.1172 2.1172 5.1172zm-5.5156 13.926-0.042969 0.085938-0.22266 0.44141c0.24219 2.4219 0.66406 4.4531 1.2734 6.0938 0.58984 1.5898 1.3359 2.7891 2.2617 3.6016 0.25391 0.19922 0.42188 0.49609 0.44141 0.84375 0.042968 0.64062-0.44141 1.1914-1.0859 1.2305-3.0742 0.19922-6.168 0.29297-9.2852 0.28516-3.125-0.011718-6.2305-0.125-9.293-0.34766-0.57812-0.042968-1.0508-0.51562-1.0742-1.1055-0.019531-0.41016-0.16797-1.8516-0.53516-3.2539-0.09375-0.36719-0.21094-0.72656-0.33594-1.0508-0.76953 0.39844-1.7148 0.83203-2.707 1.168-1.1172 0.37891-2.2852 0.64062-3.3477 0.60156-1.2734-0.050781-2.3789-0.51562-3.0508-1.6406-0.125-0.21094-0.24219-0.45312-0.33594-0.72656-0.03125-0.085938-0.042968-0.16797-0.050781-0.25391-0.03125-0.31641 0.0625-0.80859 0.27344-1.4531 0.074219-0.21094 0.14844-0.45312 0.24219-0.70703-0.30469-0.085937-0.64062-0.19922-1.0312-0.34766-0.28516-0.10547-0.52734-0.31641-0.65234-0.60938-0.22266-0.49609-0.074218-1.0508 0.32812-1.3789-0.42969-0.16797-0.73828-0.58984-0.73828-1.0859v-1.3047c-1.0625-0.03125-2.3672-0.23047-3.0117-1.0859l-0.019531-0.03125c-0.25391-0.34766-0.30469-0.83203-0.074219-1.2422l3.2422-5.9258c0.19141-0.98828-0.13672-2.0117-0.45312-3.0195-0.26172-0.85156-0.53516-1.6953-0.60156-2.6523-0.21094-2.957 0.50391-5.5781 1.8438-7.7891 1.3984-2.3281 3.5039-4.1992 5.9688-5.5352 2.4297-1.3164 5.2305-2.1172 8.0625-2.3164 3.6641-0.25391 7.3984 0.48438 10.547 2.3789 0.0625 0.042969 0.19141 0.11719 0.36719 0.23047l0.0625 0.042968h3.1562c0.39844 0 0.76953 0.14844 1.0508 0.39062 0.28516 0.24219 0.48438 0.58984 0.54688 0.98047l0.25391 1.6523c0 0.03125 0.011719 0.0625 0.019532 0.10547v0.03125s0.011718 0 0.03125 0.011719c0.25391 0.085938 0.46484 0.16797 0.64062 0.24219 0.24219 0.10547 0.45313 0.19922 0.63281 0.28516 0.019531 0 0.03125 0.011719 0.03125 0.011719s0.011719 0 0.03125-0.019532l1.4297-1.043c0.32813-0.24219 0.70703-0.33594 1.0742-0.30469 0.17969 0.011719 0.35938 0.050782 0.51562 0.125h6.1797l2.0625-2.5352c-0.44141-0.64062-0.69531-1.4297-0.69531-2.2734 0-1.1172 0.45312-2.125 1.1797-2.8516 0.72656-0.72656 1.7383-1.1797 2.8516-1.1797 1.1172 0 2.125 0.45313 2.8516 1.1797 0.72656 0.72656 1.1797 1.7383 1.1797 2.8516 0 1.1172-0.45312 2.125-1.1797 2.8516-0.72656 0.72656-1.7383 1.1797-2.8516 1.1797-0.54688 0-1.0625-0.10547-1.5352-0.30469l-2.4102 2.9688c-0.23047 0.28516-0.57031 0.42969-0.90625 0.42969h-4.2422l0.57031 0.57031c0.28516 0.28516 0.44141 0.65234 0.47266 1.0195 0.019531 0.22266-0.011719 0.44141-0.085938 0.65234h3.9688c0.64063 0 1.168 0.52734 1.168 1.168s-0.52734 1.168-1.168 1.168h-5.0508c0.03125 0.074218 0.0625 0.13672 0.09375 0.22266 0.09375 0.24219 0.17969 0.45312 0.24219 0.64062 0 0 0.011719 0.019531 0.019531 0.03125 0 0 0.019531 0 0.03125 0.011719l1.6523 0.25391s0.0625 0 0.10547 0.011718c0.39063 0.0625 0.73828 0.26172 0.98047 0.54688 0.24219 0.28516 0.39062 0.65234 0.39062 1.0508v0.64062h4.0859c0.19922-0.70703 0.57812-1.3359 1.0859-1.832 0.76953-0.76953 1.832-1.2422 3-1.2422s2.2305 0.47266 3 1.2422c0.76953 0.76953 1.2422 1.832 1.2422 3 0 1.168-0.47266 2.2305-1.2422 3-0.76953 0.76953-1.832 1.2422-3 1.2422s-2.2305-0.47266-3-1.2422c-0.50391-0.50391-0.88281-1.1367-1.0859-1.832h-4.0859v0.64062c0 0.39844-0.14844 0.76953-0.39062 1.0508-0.24219 0.28516-0.58984 0.48437-0.98047 0.54687 0 0-1.7461 0.26172-1.7461 0.26172-0.011719 0-0.019531 0-0.03125 0.011719 0 0 0 0.011719-0.011719 0.03125-0.074219 0.19922-0.14844 0.42188-0.24219 0.64062-0.03125 0.074219-0.0625 0.14844-0.09375 0.21094h5.0312c0.64063 0 1.168 0.52734 1.168 1.168s-0.52734 1.168-1.168 1.168h-3.9492c0.074218 0.21094 0.10547 0.42969 0.085937 0.65234-0.03125 0.37891-0.19141 0.73828-0.47266 1.0195l-0.57031 0.57031h4.2422c0.33594 0 0.67188 0.14844 0.90625 0.42969l2.4102 2.9688c0.47266-0.19922 0.98828-0.30469 1.5352-0.30469 1.1172 0 2.125 0.45312 2.8516 1.1797s1.1797 1.7383 1.1797 2.8516c0 1.1172-0.45312 2.125-1.1797 2.8516s-1.7383 1.1797-2.8516 1.1797c-1.1172 0-2.125-0.45313-2.8516-1.1797s-1.1797-1.7383-1.1797-2.8516c0-0.84375 0.26172-1.6211 0.69531-2.2734l-2.0625-2.5352h-6.1914c-0.16797 0.074218-0.33594 0.11719-0.51562 0.125-0.36719 0.03125-0.74609-0.074219-1.0742-0.30469l-1.4297-1.043s-0.019532-0.019532-0.03125-0.019532c0 0-0.011719 0-0.03125 0.011719-0.19141 0.09375-0.39844 0.19141-0.62109 0.28516-0.16797 0.074219-0.34766 0.13672-0.53516 0.21094-0.03125 0.011719-0.0625 0.03125-0.09375 0.042969-0.019532 0-0.019532 0.011718-0.03125 0.011718v0.03125l-0.25391 1.6523c0 0.03125 0 0.0625-0.011719 0.10547-0.0625 0.39062-0.26172 0.73828-0.54687 0.98047-0.28516 0.24219-0.65234 0.39062-1.0508 0.39062h-0.085937zm-15.895 5.6328c0.60938-0.39844 1.1797-0.80859 1.6836-1.2422 0.78906-0.66406 1.4648-1.3672 2.0195-2.1055 0.39062-0.51563 0.28516-1.2422-0.23047-1.6328s-1.2422-0.28516-1.6328 0.23047c-0.45312 0.60156-1.0117 1.168-1.6641 1.7148-0.66406 0.55859-1.4219 1.0859-2.2852 1.5898-0.019532 0.011719-0.042969 0.019531-0.0625 0.03125-0.70703 0.42969-1.9805 1.1055-3.3281 1.5586-0.88281 0.30469-1.7773 0.50391-2.5156 0.48438-0.51562-0.019531-0.9375-0.16797-1.1484-0.51562-0.019531-0.03125-0.03125-0.050781-0.042968-0.085937 0.03125-0.074219 0.074218-0.21094 0.14844-0.42969 0.14844-0.45312 0.37891-1.0742 0.67188-1.8438 0 0 0.03125-0.074219 0.042969-0.11719 0.16797-0.62109-0.19922-1.2539-0.80859-1.4219-0.13672-0.03125-0.25391-0.0625-0.41016-0.085938l-0.09375-0.019531c0.17969-0.32812 0.35938-0.71484 0.53516-1.1914 0.125-0.32812 0.10547-0.70703-0.085937-1.0312-0.33594-0.54687-1.043-0.71484-1.5898-0.39062v-1.1797-0.074219c-0.019532-0.64062-0.55859-1.1484-1.1992-1.125h-0.125c-0.37891 0.019531-1 0.042969-1.4727 0l2.707-4.9258c0.0625-0.10547 0.11719-0.22266 0.14844-0.34766 0.39062-1.6523-0.042969-3.0312-0.47266-4.3984-0.23047-0.72656-0.45312-1.4414-0.50391-2.1172-0.16797-2.4531 0.41016-4.6094 1.5156-6.4414 1.1797-1.957 2.9688-3.5469 5.0742-4.6836 2.1484-1.1562 4.6094-1.8633 7.125-2.043 3.043-0.21094 6.1367 0.34766 8.7695 1.8086l-0.25391 1.6406s0 0.019531-0.011719 0.03125c0 0-0.011719 0-0.03125 0.011719-0.19922 0.074218-0.42188 0.15625-0.64062 0.24219-0.22266 0.09375-0.42969 0.19141-0.62109 0.28516-0.019531 0-0.03125 0.011719-0.03125 0.011719s-0.011718 0-0.03125-0.019531l-1.4297-1.043c-0.32812-0.24219-0.70703-0.33594-1.0742-0.30469-0.37891 0.03125-0.73828 0.19141-1.0195 0.47266l-2.5586 2.5586c-0.28516 0.28516-0.44141 0.64063-0.47266 1.0195-0.03125 0.36719 0.074219 0.74609 0.30469 1.0742l1.043 1.4297s0.019531 0.019531 0.019531 0.03125c0 0 0 0.019531-0.011718 0.03125-0.09375 0.19141-0.19141 0.39844-0.28516 0.62109s-0.17969 0.44141-0.24219 0.64062c0 0.019531 0 0.03125-0.011719 0.03125 0 0-0.019531 0-0.03125 0.011719l-1.7461 0.27344c-0.39844 0.0625-0.73828 0.26172-0.98047 0.54688-0.24219 0.28516-0.39062 0.65234-0.39062 1.0508v3.6094c0 0.39844 0.14844 0.76953 0.39062 1.0508 0.24219 0.28516 0.58984 0.48437 0.98047 0.54687 0.03125 0 0.0625 0 0.10547 0.011719l1.6523 0.25391s0.019531 0 0.03125 0.011718c0 0 0 0.011719 0.011718 0.03125 0.0625 0.19141 0.14844 0.39844 0.24219 0.64062 0.09375 0.22266 0.19141 0.42969 0.28516 0.62109 0 0.019531 0.011719 0.03125 0.011719 0.03125s0 0.011719-0.019531 0.03125l-1.043 1.4297c-0.24219 0.32813-0.33594 0.70703-0.30469 1.0742 0.03125 0.37891 0.19141 0.73828 0.47266 1.0195l2.5586 2.5586c0.28516 0.28516 0.64062 0.44141 1.0195 0.47266 0.36719 0.03125 0.74609-0.074218 1.0742-0.30469l1.4297-1.043s0.019531-0.019531 0.03125-0.019531c0 0 0.019531 0 0.03125 0.011719 0.17969 0.085937 0.37891 0.17969 0.63281 0.27344 0.17969 0.074219 0.39844 0.15625 0.64062 0.24219 0.019532 0 0.03125 0 0.03125 0.011719 0 0 0 0.019531 0.011719 0.03125l0.27344 1.7461c0.0625 0.39062 0.26172 0.73828 0.54688 0.98047s0.65234 0.39062 1.0508 0.39062h0.95703c-0.03125 0.125-0.050781 0.27344-0.042968 0.41016 0.25391 2.7773 0.73828 5.1172 1.4297 7.0117 0.37891 1.0117 0.80859 1.9062 1.3164 2.6836-2.2852 0.11719-4.5586 0.15625-6.8086 0.15625-2.6953 0-5.4102-0.10547-8.1484-0.28516-0.09375-0.74609-0.25391-1.7461-0.51562-2.7148-0.14844-0.55859-0.33594-1.125-0.55859-1.6328zm16.043-22.062c0.45312-0.45312 1.1914-0.45312 1.6406 0 0.45313 0.45312 0.45313 1.1914 0 1.6406l-3.2617 3.2617c-0.29297 0.29297-0.67188 0.44141-1.0508 0.44141-0.37891 0-0.76953-0.14844-1.0508-0.44141l-1.6406-1.6406c-0.45312-0.45312-0.45312-1.1914 0-1.6406 0.45312-0.45313 1.1914-0.45313 1.6406 0l1.0508 1.0508zm44.285-1.1055v31.906h-77.277v-50.316h60.012v0.085937 3.832c0 0.42187 0.15625 0.80859 0.41016 1.1055 0.25391 0.29297 0.62109 0.50391 1.0312 0.57031l2.3594 0.36719c0.11719 0.36719 0.25391 0.73828 0.39844 1.0938 0.14844 0.35938 0.31641 0.70703 0.49609 1.0508l-1.4102 1.9258c-0.25391 0.33594-0.35938 0.74609-0.32812 1.1367 0.03125 0.39844 0.19922 0.77734 0.49609 1.0742l2.707 2.707s0.074219 0.0625 0.11719 0.09375c0.28516 0.23047 0.62109 0.36719 0.96875 0.39844 0.39063 0.03125 0.78906-0.074219 1.1367-0.32812l1.9258-1.4102c0.34766 0.17969 0.69531 0.34766 1.0508 0.49609 0.35938 0.14844 0.72656 0.28516 1.0938 0.39844l0.36719 2.3594c0.0625 0.42188 0.27344 0.77734 0.57031 1.0312 0.30469 0.26172 0.69531 0.41016 1.1055 0.41016h2.7891zm-12.684-22.652 0.09375 0.13672c-0.17969 0.34766-0.34766 0.69531-0.49609 1.0508-0.09375 0.24219-0.19141 0.48438-0.27344 0.72656h-65.086c-0.64062 0-1.168 0.52734-1.168 1.168v52.652c0 0.64062 0.52734 1.168 1.168 1.168h79.621c0.64062 0 1.168-0.52734 1.168-1.168v-33.664c0.19922-0.23047 0.34766-0.52734 0.39844-0.86328l0.36719-2.3594c0.36719-0.11719 0.73828-0.25391 1.0938-0.39844l0.050781-0.019531v39.602c0 0.21094-0.085938 0.41016-0.23047 0.54688-0.13672 0.13672-0.33594 0.23047-0.54688 0.23047l-84.219 0.003906c-0.21094 0-0.41016-0.085937-0.54688-0.23047-0.13672-0.13672-0.23047-0.33594-0.23047-0.54687v-57.258c0-0.21094 0.085938-0.41016 0.23047-0.54688 0.13672-0.13672 0.33594-0.23047 0.54688-0.23047h68.062zm16.148 1.9141c-1.1055-1.1055-2.6406-1.7891-4.3281-1.7891-1.6836 0-3.2227 0.68359-4.3281 1.7891-1.1055 1.1055-1.7891 2.6406-1.7891 4.3281 0 1.6836 0.68359 3.2227 1.7891 4.3281 1.1055 1.1055 2.6406 1.7891 4.3281 1.7891 1.6836 0 3.2227-0.68359 4.3281-1.7891 1.1055-1.1055 1.7891-2.6406 1.7891-4.3281 0-1.6836-0.68359-3.2227-1.7891-4.3281zm-4.3281-4.125c-2.3359 0-4.4414 0.94922-5.9805 2.4727-1.5273 1.5273-2.4727 3.6406-2.4727 5.9805 0 2.3359 0.94922 4.4531 2.4727 5.9805 1.5273 1.5273 3.6406 2.4727 5.9805 2.4727 2.3359 0 4.4531-0.94922 5.9805-2.4727 1.5273-1.5273 2.4727-3.6406 2.4727-5.9805 0-2.3359-0.94922-4.4531-2.4727-5.9805-1.5273-1.5273-3.6406-2.4727-5.9805-2.4727zm-15.41 35.98h12.57c0.64062 0 1.168-0.52734 1.168-1.168s-0.52734-1.168-1.168-1.168h-12.57c-0.64062 0-1.168 0.52734-1.168 1.168s0.52734 1.168 1.168 1.168zm0 5.3047h12.57c0.64062 0 1.168-0.52734 1.168-1.168s-0.52734-1.168-1.168-1.168h-12.57c-0.64062 0-1.168 0.52734-1.168 1.168s0.52734 1.168 1.168 1.168zm0 5.3047h12.57c0.64062 0 1.168-0.52734 1.168-1.168s-0.52734-1.168-1.168-1.168h-12.57c-0.64062 0-1.168 0.52734-1.168 1.168s0.52734 1.168 1.168 1.168zm0 5.3047h12.57c0.64062 0 1.168-0.52734 1.168-1.168s-0.52734-1.168-1.168-1.168h-12.57c-0.64062 0-1.168 0.52734-1.168 1.168s0.52734 1.168 1.168 1.168zm17.18-55.043-0.37891-2.4844h-2.7695l-0.39844 2.5703c-0.074219 0.47266-0.42188 0.84375-0.86328 0.94922-0.52734 0.13672-1.0312 0.30469-1.5156 0.50391-0.50391 0.21094-0.98047 0.45312-1.4297 0.72656-0.41016 0.24219-0.91406 0.21094-1.2852-0.0625l-2.0938-1.5352-1.957 1.957 1.5352 2.0938c0.29297 0.39844 0.29297 0.9375 0.03125 1.3281-0.26172 0.44141-0.49609 0.90625-0.69531 1.3906s-0.36719 1-0.50391 1.5156c-0.125 0.49609-0.54688 0.84375-1.0312 0.875l-2.4844 0.37891v2.7695l2.5703 0.39844c0.47266 0.074219 0.84375 0.42188 0.94922 0.86328 0.125 0.52734 0.29297 1.0312 0.50391 1.5156 0.21094 0.50391 0.45312 0.98047 0.72656 1.4297 0.24219 0.41016 0.21094 0.91406-0.0625 1.2852l-1.5352 2.0938 1.957 1.957 2.0938-1.5352c0.39844-0.29297 0.9375-0.29297 1.3281-0.03125 0.44141 0.26172 0.90625 0.49609 1.3906 0.69531 0.48438 0.19922 1 0.36719 1.5156 0.50391 0.49609 0.125 0.84375 0.54688 0.875 1.0312l0.37891 2.4844h2.7695l0.39844-2.5703c0.074219-0.47266 0.42188-0.84375 0.86328-0.94922 0.52734-0.13672 1.0312-0.30469 1.5156-0.50391 0.50391-0.21094 0.98047-0.45313 1.4297-0.72656 0.41016-0.24219 0.91406-0.21094 1.2852 0.0625l2.0938 1.5352 1.957-1.957-1.5352-2.0938c-0.29297-0.39844-0.29297-0.9375-0.03125-1.3281 0.26172-0.44141 0.49609-0.90625 0.69531-1.3906 0.19922-0.48438 0.36719-1 0.50391-1.5156 0.125-0.49609 0.54688-0.84375 1.0312-0.875l2.4844-0.37891v-2.7695l-2.5703-0.39844c-0.47266-0.074219-0.84375-0.42188-0.94922-0.86328-0.125-0.52734-0.29297-1.0312-0.50391-1.5156-0.21094-0.50391-0.45312-0.98047-0.71484-1.4297-0.24219-0.41016-0.21094-0.91406 0.0625-1.2852 0 0 1.5352-2.0938 1.5352-2.0938l-1.957-1.957-2.0938 1.5352c-0.39844 0.29297-0.9375 0.29297-1.3281 0.03125-0.44141-0.26172-0.90625-0.49609-1.3906-0.69531-0.48438-0.19922-0.98828-0.36719-1.5156-0.50391-0.49609-0.125-0.84375-0.54688-0.875-1.0312z"
     fill-rule="evenodd"
     id="path2" />
</svg>
