<?xml version="1.0" encoding="UTF-8" standalone="no"?>
<svg
   version="1.0"
   width="1024.000000pt"
   height="1024.000000pt"
   viewBox="0 0 1024.000000 1024.000000"
   preserveAspectRatio="xMidYMid meet"
   id="svg24021"
   sodipodi:docname="roshan_logo.svg"
   inkscape:version="1.2.2 (b0a84865, 2022-12-01)"
   xmlns:inkscape="http://www.inkscape.org/namespaces/inkscape"
   xmlns:sodipodi="http://sodipodi.sourceforge.net/DTD/sodipodi-0.dtd"
   xmlns="http://www.w3.org/2000/svg"
   xmlns:svg="http://www.w3.org/2000/svg">
  <defs
     id="defs24025">
    <clipPath
       clipPathUnits="userSpaceOnUse"
       id="clipPath24198">
      <rect
         style="fill:#ffffff;stroke:#c60000;stroke-width:14.1732;stroke-linejoin:round;stroke-miterlimit:0;stroke-opacity:0.87372;paint-order:markers stroke fill"
         id="rect24200"
         width="6942.373"
         height="7159.3223"
         x="1995.9323"
         y="-8287.458"
         transform="scale(1,-1)" />
    </clipPath>
    <clipPath
       clipPathUnits="userSpaceOnUse"
       id="clipPath24202">
      <rect
         style="fill:#ffffff;stroke:#c60000;stroke-width:14.1732;stroke-linejoin:round;stroke-miterlimit:0;stroke-opacity:0.87372;paint-order:markers stroke fill"
         id="rect24204"
         width="6942.373"
         height="7159.3223"
         x="1995.9323"
         y="-8287.458"
         transform="scale(1,-1)" />
    </clipPath>
    <clipPath
       clipPathUnits="userSpaceOnUse"
       id="clipPath24206">
      <rect
         style="fill:#ffffff;stroke:#c60000;stroke-width:14.1732;stroke-linejoin:round;stroke-miterlimit:0;stroke-opacity:0.87372;paint-order:markers stroke fill"
         id="rect24208"
         width="6942.373"
         height="7159.3223"
         x="1995.9323"
         y="-8287.458"
         transform="scale(1,-1)" />
    </clipPath>
    <clipPath
       clipPathUnits="userSpaceOnUse"
       id="clipPath24210">
      <rect
         style="fill:#ffffff;stroke:#c60000;stroke-width:14.1732;stroke-linejoin:round;stroke-miterlimit:0;stroke-opacity:0.87372;paint-order:markers stroke fill"
         id="rect24212"
         width="6942.373"
         height="7159.3223"
         x="1995.9323"
         y="-8287.458"
         transform="scale(1,-1)" />
    </clipPath>
    <clipPath
       clipPathUnits="userSpaceOnUse"
       id="clipPath24214">
      <rect
         style="fill:#ffffff;stroke:#c60000;stroke-width:14.1732;stroke-linejoin:round;stroke-miterlimit:0;stroke-opacity:0.87372;paint-order:markers stroke fill"
         id="rect24216"
         width="6942.373"
         height="7159.3223"
         x="1995.9323"
         y="-8287.458"
         transform="scale(1,-1)" />
    </clipPath>
    <clipPath
       clipPathUnits="userSpaceOnUse"
       id="clipPath24218">
      <rect
         style="fill:#ffffff;stroke:#c60000;stroke-width:14.1732;stroke-linejoin:round;stroke-miterlimit:0;stroke-opacity:0.87372;paint-order:markers stroke fill"
         id="rect24220"
         width="6942.373"
         height="7159.3223"
         x="1995.9323"
         y="-8287.458"
         transform="scale(1,-1)" />
    </clipPath>
    <clipPath
       clipPathUnits="userSpaceOnUse"
       id="clipPath24222">
      <rect
         style="fill:#ffffff;stroke:#c60000;stroke-width:14.1732;stroke-linejoin:round;stroke-miterlimit:0;stroke-opacity:0.87372;paint-order:markers stroke fill"
         id="rect24224"
         width="6942.373"
         height="7159.3223"
         x="1995.9323"
         y="-8287.458"
         transform="scale(1,-1)" />
    </clipPath>
    <clipPath
       clipPathUnits="userSpaceOnUse"
       id="clipPath24226">
      <rect
         style="fill:#ffffff;stroke:#c60000;stroke-width:14.1732;stroke-linejoin:round;stroke-miterlimit:0;stroke-opacity:0.87372;paint-order:markers stroke fill"
         id="rect24228"
         width="6942.373"
         height="7159.3223"
         x="1995.9323"
         y="-8287.458"
         transform="scale(1,-1)" />
    </clipPath>
    <clipPath
       clipPathUnits="userSpaceOnUse"
       id="clipPath24230">
      <rect
         style="fill:#ffffff;stroke:#c60000;stroke-width:14.1732;stroke-linejoin:round;stroke-miterlimit:0;stroke-opacity:0.87372;paint-order:markers stroke fill"
         id="rect24232"
         width="6942.373"
         height="7159.3223"
         x="1995.9323"
         y="-8287.458"
         transform="scale(1,-1)" />
    </clipPath>
    <clipPath
       clipPathUnits="userSpaceOnUse"
       id="clipPath24234">
      <rect
         style="fill:#ffffff;stroke:#c60000;stroke-width:14.1732;stroke-linejoin:round;stroke-miterlimit:0;stroke-opacity:0.87372;paint-order:markers stroke fill"
         id="rect24236"
         width="6942.373"
         height="7159.3223"
         x="1995.9323"
         y="-8287.458"
         transform="scale(1,-1)" />
    </clipPath>
    <clipPath
       clipPathUnits="userSpaceOnUse"
       id="clipPath24242">
      <rect
         style="fill:#ffffff;stroke:#c60000;stroke-width:14.1732;stroke-linejoin:round;stroke-miterlimit:0;stroke-opacity:0.87372;paint-order:markers stroke fill"
         id="rect24244"
         width="5814.2373"
         height="5857.6274"
         x="2473.2205"
         y="-8027.1187"
         transform="scale(1,-1)" />
    </clipPath>
    <clipPath
       clipPathUnits="userSpaceOnUse"
       id="clipPath24525">
      <rect
         style="fill:#ffffff;stroke:#c60000;stroke-width:14.1732;stroke-linejoin:round;stroke-miterlimit:0;stroke-opacity:0.87372;paint-order:markers stroke fill"
         id="rect24527"
         width="5368.0273"
         height="5467.1187"
         x="2516.6104"
         y="-7810.1694"
         transform="scale(1,-1)" />
    </clipPath>
  </defs>
  <sodipodi:namedview
     id="namedview24023"
     pagecolor="#ffffff"
     bordercolor="#000000"
     borderopacity="0.25"
     inkscape:showpageshadow="2"
     inkscape:pageopacity="0.0"
     inkscape:pagecheckerboard="0"
     inkscape:deskcolor="#d1d1d1"
     inkscape:document-units="pt"
     showgrid="false"
     inkscape:zoom="0.19431818"
     inkscape:cx="306.19884"
     inkscape:cy="74.619885"
     inkscape:window-width="1512"
     inkscape:window-height="917"
     inkscape:window-x="0"
     inkscape:window-y="65"
     inkscape:window-maximized="0"
     inkscape:current-layer="g24019" />
  <g
     transform="translate(0.000000,1024.000000) scale(0.100000,-0.100000)"
     fill="#000000"
     stroke="none"
     id="g24019">
    <path
       d="M0 5120 l0 -5120 5120 0 5120 0 0 4691 c0 4460 -1 4691 -18 4685 -16 -6 -16 -5 0 7 15 12 17 33 17 158 0 117 -3 147 -16 161 -15 16 -15 18 0 18 14 0 16 15 15 105 -1 58 -5 105 -10 105 -5 0 -6 -10 -3 -21 5 -16 3 -20 -6 -17 -8 3 -13 13 -13 22 1 9 -2 16 -8 16 -5 0 -6 5 -3 10 4 6 11 8 16 5 5 -4 9 1 9 9 0 9 -8 16 -18 16 -10 0 -27 6 -38 14 -15 12 -17 17 -7 27 10 10 13 10 13 0 0 -6 13 -17 29 -22 18 -6 32 -19 34 -32 2 -12 5 -3 6 21 1 39 -1 42 -24 42 -14 0 -25 5 -25 11 0 5 5 7 10 4 6 -3 10 1 10 9 0 9 4 16 8 16 4 0 6 16 4 35 -2 19 -9 35 -14 35 -5 0 -7 -14 -4 -32 3 -18 3 -27 0 -20 -3 7 -17 25 -31 40 -14 15 -30 36 -35 47 -9 17 -8 17 11 -2 27 -29 46 -31 31 -4 -14 28 -13 31 16 31 14 0 23 4 19 10 -3 6 -18 8 -33 5 -14 -2 -32 1 -40 8 -10 8 -85 13 -231 16 -119 3 -2397 7 -5063 9 l-4848 3 0 -5121z m10107 5024 c-3 -3 -12 -4 -19 -1 -8 3 -5 6 6 6 11 1 17 -2 13 -5z m-12 -183 c-3 -6 -11 -11 -17 -11 -6 0 -6 6 2 15 14 17 26 13 15 -4z m-38 -53 c-3 -8 -6 -5 -6 6 -1 11 2 17 5 13 3 -3 4 -12 1 -19z m96 -5 c-7 -2 -19 -2 -25 0 -7 3 -2 5 12 5 14 0 19 -2 13 -5z m32 -33 c3 5 12 10 18 10 7 0 4 -5 -5 -11 -11 -6 -15 -16 -11 -27 5 -15 4 -15 -8 -2 -8 8 -21 20 -29 28 -13 11 -12 12 7 3 14 -7 24 -8 28 -1z m39 -54 c-5 -21 -9 -24 -19 -16 -11 9 -11 15 3 29 21 22 25 20 16 -13z m-109 -36 c13 -6 15 -9 5 -9 -8 0 -22 4 -30 9 -18 12 -2 12 25 0z m60 -39 c3 -5 1 -12 -5 -16 -5 -3 -10 1 -10 9 0 18 6 21 15 7z m-75 -25 c0 -3 -4 -8 -10 -11 -5 -3 -10 -1 -10 4 0 6 5 11 10 11 6 0 10 -2 10 -4z m90 -156 c0 -5 -2 -10 -4 -10 -3 0 -8 5 -11 10 -3 6 -1 10 4 10 6 0 11 -4 11 -10z m-4919 -1795 c70 -45 83 -117 36 -194 -77 -128 -277 -73 -277 77 0 128 130 191 241 117z m-491 -112 l0 -108 -662 3 c-365 1 -741 -2 -835 -6 -159 -9 -177 -12 -230 -37 -71 -35 -133 -98 -170 -173 l-28 -57 -3 -317 -3 -318 -100 0 -99 0 0 330 0 330 27 77 c14 43 33 89 42 103 84 137 276 252 451 270 41 4 420 8 843 9 l767 1 0 -107z m2479 96 c171 -27 357 -158 444 -309 56 -98 61 -137 61 -482 1 -174 -1 -318 -4 -321 -3 -2 -49 -2 -102 1 l-98 4 0 282 c0 306 -6 357 -56 442 -29 49 -90 106 -144 134 -85 43 -79 43 -950 49 l-835 6 -5 103 -5 102 815 0 c518 0 838 -4 879 -11z m-3375 -555 c62 -21 148 -100 174 -162 33 -77 47 -175 33 -238 -15 -64 -79 -156 -137 -196 -70 -49 -112 -61 -191 -56 -125 8 -238 85 -292 198 -23 48 -26 68 -26 155 0 96 1 102 33 152 37 59 109 116 180 144 59 23 163 24 226 3z m2248 -19 c273 -46 525 -180 716 -380 215 -225 317 -450 344 -760 10 -113 9 -145 -6 -245 -31 -201 -83 -334 -191 -485 -156 -219 -390 -389 -632 -461 -76 -22 -117 -27 -308 -34 -261 -11 -499 -12 -508 -4 -3 4 7 33 23 65 50 97 87 200 100 275 l13 71 181 5 c161 5 190 9 261 33 202 68 349 190 442 370 131 253 115 505 -47 739 -129 186 -315 306 -534 345 -33 6 -184 11 -335 11 l-276 0 3 -420 c1 -231 -1 -420 -4 -420 -4 0 -30 15 -58 33 -28 19 -66 42 -83 53 l-33 18 0 441 c0 411 -2 443 -19 482 -28 60 -95 93 -188 93 -78 0 -126 -22 -167 -79 -46 -62 -72 -287 -62 -540 3 -91 7 -217 8 -279 l2 -112 -88 -51 c-49 -27 -90 -49 -92 -47 -2 2 -4 296 -6 654 l-3 650 727 -2 c611 -2 741 -5 820 -19z m-1104 -419 c22 -22 31 -145 31 -460 1 -259 -1 -288 -15 -282 -9 3 -45 6 -80 6 l-64 0 0 238 c0 130 3 302 7 381 l6 143 51 -6 c27 -3 56 -12 64 -20z m-2178 -823 l0 -413 -100 0 -100 0 0 413 0 412 100 0 100 0 0 -412z m4917 1 c-3 -223 -7 -407 -9 -409 -1 -1 -47 0 -100 2 l-98 6 0 336 c0 185 -3 366 -7 404 l-6 67 112 0 113 0 -5 -406z m-3867 345 c156 -36 316 -192 356 -349 20 -80 14 -217 -14 -301 -54 -162 -168 -271 -333 -314 -207 -55 -456 51 -548 234 -147 290 -8 648 281 725 63 17 195 20 258 5z m1181 -469 c124 -23 278 -132 342 -242 110 -190 54 -490 -118 -629 -56 -44 -151 -88 -224 -101 -163 -30 -386 62 -472 195 -68 105 -101 263 -80 386 20 122 47 179 120 252 120 119 272 169 432 139z m-2257 -533 c59 -33 79 -66 79 -130 0 -69 -25 -114 -79 -145 -72 -42 -171 -12 -205 61 -31 69 -22 135 24 186 49 53 119 64 181 28z m4931 -6 c16 -9 40 -33 53 -52 20 -29 23 -44 20 -96 -4 -67 -25 -100 -80 -129 -58 -30 -151 -11 -197 41 -72 82 -41 203 64 251 36 17 97 10 140 -15z m-3579 -64 c-3 -13 -7 -563 -8 -1223 -1 -659 -4 -1279 -6 -1377 l-3 -178 -77 3 -77 3 -3 1351 -2 1351 27 6 c16 3 52 24 82 46 63 47 76 50 67 18z m-628 -81 l32 -17 0 -398 0 -399 -72 -4 c-40 -3 -75 -3 -78 -1 -3 3 -6 207 -8 454 l-3 450 48 -34 c26 -19 63 -42 81 -51z m322 -1356 l0 -1340 -77 0 -78 0 0 738 c0 405 -2 726 -3 712 -5 -32 -25 -54 -86 -96 l-50 -33 -3 -658 c-2 -361 -6 -659 -9 -662 -3 -3 -34 -7 -69 -9 l-65 -4 0 676 0 677 -31 27 c-41 34 -69 95 -69 151 0 88 86 190 176 207 66 12 184 -88 211 -180 11 -36 12 -29 7 69 -3 61 -5 322 -5 580 1 259 1 473 1 478 0 4 34 7 75 7 l75 0 0 -1340z m-1020 570 l0 -411 -101 3 -100 3 -2 402 -2 402 100 4 c55 1 101 4 103 5 1 1 2 -183 2 -408z m1789 376 c8 -9 38 -30 67 -47 l54 -30 0 -92 c0 -51 0 -373 1 -717 0 -344 0 -799 0 -1012 l-1 -388 -80 0 c-57 0 -80 4 -81 13 0 6 -2 528 -3 1159 -3 1077 -2 1147 14 1138 9 -5 22 -16 29 -24z m737 -81 c6 -62 8 -67 17 -43 10 25 15 27 91 33 45 3 266 10 491 14 362 6 412 5 429 -9 10 -8 53 -55 94 -105 42 -49 128 -151 190 -225 63 -74 158 -186 211 -249 321 -381 504 -593 551 -638 30 -29 88 -63 109 -63 3 0 5 74 3 163 l-3 164 105 0 105 1 -5 -241 c-3 -133 -10 -256 -15 -272 -6 -19 -6 -66 0 -120 10 -99 1 -178 -28 -254 -43 -114 -155 -238 -269 -299 -102 -54 -155 -60 -577 -64 l-380 -3 -3 108 -3 107 396 0 396 0 51 26 c102 52 203 170 223 262 6 29 4 32 -17 32 -34 0 -106 24 -126 41 -18 15 -33 49 -103 224 -27 68 -43 91 -103 150 -39 39 -109 119 -156 179 -47 60 -106 134 -133 165 -52 61 -201 242 -323 391 -42 52 -97 118 -122 145 -24 28 -74 89 -110 138 l-65 87 -181 -6 c-100 -4 -307 -7 -461 -8 l-280 -1 -3 -1022 -2 -1023 -73 0 c-39 0 -78 4 -85 8 -10 7 -12 237 -10 1117 l3 1108 45 13 c25 8 61 27 80 43 29 25 35 27 37 13 1 -9 5 -48 9 -87z m2374 95 c13 0 15 -50 13 -402 l-3 -403 -100 -3 -100 -3 0 338 c0 186 -3 368 -6 405 l-7 67 74 4 c41 2 83 2 94 0 11 -1 27 -3 35 -3z m-2690 -1206 l0 -1105 -72 7 c-40 3 -76 9 -81 13 -4 4 -6 497 -5 1097 l3 1089 70 5 c39 3 73 4 78 2 4 -2 7 -500 7 -1108z m1233 709 c52 -60 134 -157 182 -217 48 -60 115 -142 149 -181 33 -39 133 -163 221 -275 223 -284 277 -344 341 -382 43 -26 70 -52 116 -118 l59 -85 -93 -3 c-51 -2 -116 -1 -143 3 -46 5 -53 10 -78 50 -16 24 -63 83 -105 131 -81 91 -183 215 -311 374 -73 92 -166 199 -336 385 -141 154 -311 386 -293 399 4 4 136 23 169 24 21 2 43 -17 122 -105z m-502 -144 c115 -35 180 -171 135 -281 -18 -42 -85 -105 -122 -114 l-27 -7 4 -436 c1 -240 2 -525 1 -633 l-2 -198 -76 0 -76 0 6 73 c4 39 9 326 11 637 l5 565 -42 30 c-62 45 -90 105 -86 182 9 139 132 223 269 182z m-2946 -789 l0 -366 39 -79 c65 -132 151 -199 274 -211 l62 -7 0 -109 0 -109 -37 7 c-72 12 -188 56 -262 97 -134 76 -236 221 -260 367 -6 36 -12 226 -13 423 l-3 358 100 -3 100 -3 0 -365z m3399 346 c86 -36 156 -138 156 -229 0 -83 -69 -187 -125 -187 -15 0 -17 -7 -11 -52 13 -109 26 -546 19 -651 l-6 -109 -66 6 c-36 4 -67 8 -68 10 -2 1 -4 183 -6 404 -2 379 -3 402 -20 402 -72 0 -137 95 -137 199 0 91 53 183 120 210 36 14 106 13 144 -3z"
       id="path23999"
       clip-path="url(#clipPath24525)" />
    <path
       d="M5136 7689 c-22 -33 -20 -65 6 -83 47 -33 98 -10 98 43 0 33 -15 49 -57 57 -25 5 -34 1 -47 -17z"
       id="path24001"
       clip-path="url(#clipPath24230)" />
    <path
       d="M3715 7057 c-58 -23 -77 -39 -96 -80 -61 -134 33 -296 164 -284 87 8 150 94 151 208 1 56 -3 70 -26 101 -47 61 -122 83 -193 55z"
       id="path24003"
       clip-path="url(#clipPath24226)" />
    <path
       d="M3635 6091 c-74 -35 -106 -68 -141 -146 -39 -83 -43 -162 -14 -257 19 -63 30 -81 79 -129 76 -75 148 -103 246 -97 85 6 170 44 220 99 51 56 79 159 72 259 -6 95 -31 155 -90 213 -90 90 -252 116 -372 58z"
       id="path24005"
       clip-path="url(#clipPath24222)" />
    <path
       d="M4879 5635 c-64 -20 -141 -92 -170 -157 -20 -44 -24 -70 -24 -148 0 -87 3 -101 32 -161 86 -175 296 -224 475 -112 46 28 64 55 94 139 46 126 20 278 -60 359 -78 77 -239 115 -347 80z"
       id="path24007"
       clip-path="url(#clipPath24218)" />
    <path
       d="M2711 5184 c-12 -15 -21 -32 -21 -39 0 -7 9 -24 21 -39 25 -31 61 -34 89 -6 28 28 25 64 -6 89 -36 28 -58 26 -83 -5z"
       id="path24009"
       clip-path="url(#clipPath24214)" />
    <path
       d="M7626 5186 c-32 -31 -33 -56 -3 -84 50 -47 127 -11 111 52 -7 30 -20 42 -56 51 -21 5 -33 1 -52 -19z"
       id="path24011"
       clip-path="url(#clipPath24210)" />
    <path
       d="M3491 4036 c-44 -24 -63 -84 -41 -127 6 -10 24 -26 40 -34 37 -19 63 -8 85 35 23 44 19 78 -14 111 -33 33 -37 33 -70 15z"
       id="path24013"
       clip-path="url(#clipPath24206)" />
    <path
       d="M5687 3983 c-22 -6 -47 -54 -47 -92 0 -36 36 -67 87 -77 42 -8 79 22 89 72 8 42 -10 72 -51 90 -35 14 -46 15 -78 7z"
       id="path24015"
       clip-path="url(#clipPath24202)" />
    <path
       d="M6118 3500 c-26 -27 -29 -35 -24 -68 8 -46 64 -102 102 -102 41 0 94 59 94 105 0 87 -108 128 -172 65z"
       id="path24017"
       clip-path="url(#clipPath24198)" />
  </g>
</svg>
